<?xml version="1.0" encoding="UTF-8" standalone="no"?>
<svg
   xmlns:dc="http://purl.org/dc/elements/1.1/"
   xmlns:cc="http://creativecommons.org/ns#"
   xmlns:rdf="http://www.w3.org/1999/02/22-rdf-syntax-ns#"
   xmlns:svg="http://www.w3.org/2000/svg"
   xmlns="http://www.w3.org/2000/svg"
   xmlns:sodipodi="http://sodipodi.sourceforge.net/DTD/sodipodi-0.dtd"
   xmlns:inkscape="http://www.inkscape.org/namespaces/inkscape"
   inkscape:version="1.0beta2 (2b71d25, 2019-12-03)"
   inkscape:export-ydpi="61.439999"
   inkscape:export-xdpi="61.439999"
   inkscape:export-filename="/Users/posobin/2020/dev/ampie/build/icons/ampie-32.png"
   sodipodi:docname="ampie.svg"
   id="svg57"
   version="1.1"
   fill="none"
   viewBox="0 0 50 50"
   height="50"
   width="50">
  <metadata
     id="metadata61">
    <rdf:RDF>
      <cc:Work
         rdf:about="">
        <dc:format>image/svg+xml</dc:format>
        <dc:type
           rdf:resource="http://purl.org/dc/dcmitype/StillImage" />
        <dc:title></dc:title>
      </cc:Work>
    </rdf:RDF>
  </metadata>
  <sodipodi:namedview
     units="mm"
     inkscape:current-layer="g18"
     inkscape:window-maximized="1"
     inkscape:window-y="946"
     inkscape:window-x="0"
     inkscape:cy="87.86716"
     inkscape:cx="25.405416"
     inkscape:zoom="2.3419893"
     showgrid="false"
     id="namedview59"
     inkscape:window-height="829"
     inkscape:window-width="1440"
     inkscape:pageshadow="2"
     inkscape:pageopacity="0"
     guidetolerance="10"
     gridtolerance="10"
     objecttolerance="10"
     borderopacity="1"
     inkscape:document-rotation="0"
     bordercolor="#666666"
     pagecolor="#ffffff" />
  <g
     transform="translate(4.1258237,1.7190932)"
     id="g18"
     filter="url(#filter0_d)">
    <path
       style="fill:url(#paint0_radial)"
       inkscape:connector-curvature="0"
       id="path10"
       fill="url(#paint0_radial)"
       d="m 24.4375,37.0625 c -1.2083,-1.2083 -2.6667,-2.9583 -4.375,-5.25 -1.7083,-2.2917 -3.1042,-4.2708 -4.1875,-5.9375 l -1.6875,-2.5 c -1.5,1.0417 -2.6042,1.8542 -3.3125,2.4375 -0.7083,0.5417 -1.41667,1.3958 -2.125,2.5625 -0.66667,1.1667 -1,2.4583 -1,3.875 0,2.75 0.85417,4.8125 2.5625,6.1875 1.7083,1.375 3.8125,2.0625 6.3125,2.0625 1.2917,0 2.6667,-0.3125 4.125,-0.9375 1.5,-0.625 2.7292,-1.4583 3.6875,-2.5 z M 18.625,4.25 c -1.375,0 -2.5417,0.45833 -3.5,1.375 -0.9583,0.875 -1.4375,2.02083 -1.4375,3.4375 0,2.6667 1.0833,5.9583 3.25,9.875 2.1667,-1.25 3.7292,-2.5 4.6875,-3.75 1,-1.2917 1.5,-3.0625 1.5,-5.3125 0,-1.5 -0.4167,-2.8125 -1.25,-3.9375 C 21.0417,4.8125 19.9583,4.25 18.625,4.25 Z M 18.3125,2 c 2.7917,0 5,0.625 6.625,1.875 1.625,1.20833 2.4375,2.91667 2.4375,5.125 0,2.5417 -0.8125,4.7083 -2.4375,6.5 -1.625,1.7917 -3.9167,3.6042 -6.875,5.4375 2.4167,4.0833 5.5,8.2292 9.25,12.4375 1.0417,-1.5833 1.8958,-3.1042 2.5625,-4.5625 0.6667,-1.4583 1,-2.375 1,-2.75 0,-0.375 -0.2083,-0.625 -0.625,-0.75 -0.375,-0.1667 -0.8125,-0.25 -1.3125,-0.25 -0.5,-0.0417 -0.7917,-0.0833 -0.875,-0.125 -0.0833,-0.1667 -0.125,-0.4167 -0.125,-0.75 0,-0.3333 0.0625,-0.5625 0.1875,-0.6875 h 4.9375 c 0.625,0 1.2708,-0.0208 1.9375,-0.0625 0.7083,-0.0417 1.5208,-0.0833 2.4375,-0.125 0.9583,-0.0417 1.7917,-0.0833 2.5,-0.125 0.2083,0.125 0.3125,0.3958 0.3125,0.8125 0,0.625 -0.125,0.9375 -0.375,0.9375 -0.5417,0 -1.3125,0.125 -2.3125,0.375 -1,0.25 -1.6667,0.4792 -2,0.6875 -0.0417,0.0417 -0.3333,0.5208 -0.875,1.4375 -0.5417,0.875 -1.3333,2.0833 -2.375,3.625 -1.0417,1.5417 -2.125,2.9583 -3.25,4.25 0.9583,1 1.625,1.6875 2,2.0625 0.375,0.375 0.875,0.8542 1.5,1.4375 0.625,0.5417 1.125,0.9167 1.5,1.125 0.375,0.1667 0.75,0.25 1.125,0.25 0.5833,0 1.2083,-0.3542 1.875,-1.0625 0.7083,-0.7083 1.1667,-1.3125 1.375,-1.8125 0.3333,0 0.6458,0.125 0.9375,0.375 0.3333,0.25 0.5,0.5 0.5,0.75 -0.1667,0.3333 -0.3542,0.6667 -0.5625,1 -0.2083,0.3333 -0.5833,0.8125 -1.125,1.4375 -0.5,0.625 -1.2083,1.1458 -2.125,1.5625 -0.875,0.375 -1.875,0.5625 -3,0.5625 -1.0833,0 -2.2292,-0.375 -3.4375,-1.125 -1.2083,-0.75 -2.125,-1.5 -2.75,-2.25 l -1,-1.125 c -3.5833,3.125 -7.375,4.6875 -11.375,4.6875 -3.7083,0 -6.66667,-0.8958 -8.875,-2.6875 -2.16667,-1.7917 -3.25,-4.25 -3.25,-7.375 0,-2.7083 0.91667,-4.9583 2.75,-6.75 C 6.95833,24.5417 9.5,22.7917 12.75,21.125 11.9583,19.7917 11.3542,18.7292 10.9375,17.9375 10.5625,17.1042 10.1667,16 9.75,14.625 9.33333,13.25 9.125,11.8958 9.125,10.5625 9.125,8.1875 10,6.16667 11.75,4.5 13.5,2.83333 15.6875,2 18.3125,2 Z" />
    <path
       style="fill:url(#paint1_linear)"
       inkscape:connector-curvature="0"
       id="path12"
       fill="url(#paint1_linear)"
       d="m 24.4375,37.0625 c -1.2083,-1.2083 -2.6667,-2.9583 -4.375,-5.25 -1.7083,-2.2917 -3.1042,-4.2708 -4.1875,-5.9375 l -1.6875,-2.5 c -1.5,1.0417 -2.6042,1.8542 -3.3125,2.4375 -0.7083,0.5417 -1.41667,1.3958 -2.125,2.5625 -0.66667,1.1667 -1,2.4583 -1,3.875 0,2.75 0.85417,4.8125 2.5625,6.1875 1.7083,1.375 3.8125,2.0625 6.3125,2.0625 1.2917,0 2.6667,-0.3125 4.125,-0.9375 1.5,-0.625 2.7292,-1.4583 3.6875,-2.5 z M 18.625,4.25 c -1.375,0 -2.5417,0.45833 -3.5,1.375 -0.9583,0.875 -1.4375,2.02083 -1.4375,3.4375 0,2.6667 1.0833,5.9583 3.25,9.875 2.1667,-1.25 3.7292,-2.5 4.6875,-3.75 1,-1.2917 1.5,-3.0625 1.5,-5.3125 0,-1.5 -0.4167,-2.8125 -1.25,-3.9375 C 21.0417,4.8125 19.9583,4.25 18.625,4.25 Z M 18.3125,2 c 2.7917,0 5,0.625 6.625,1.875 1.625,1.20833 2.4375,2.91667 2.4375,5.125 0,2.5417 -0.8125,4.7083 -2.4375,6.5 -1.625,1.7917 -3.9167,3.6042 -6.875,5.4375 2.4167,4.0833 5.5,8.2292 9.25,12.4375 1.0417,-1.5833 1.8958,-3.1042 2.5625,-4.5625 0.6667,-1.4583 1,-2.375 1,-2.75 0,-0.375 -0.2083,-0.625 -0.625,-0.75 -0.375,-0.1667 -0.8125,-0.25 -1.3125,-0.25 -0.5,-0.0417 -0.7917,-0.0833 -0.875,-0.125 -0.0833,-0.1667 -0.125,-0.4167 -0.125,-0.75 0,-0.3333 0.0625,-0.5625 0.1875,-0.6875 h 4.9375 c 0.625,0 1.2708,-0.0208 1.9375,-0.0625 0.7083,-0.0417 1.5208,-0.0833 2.4375,-0.125 0.9583,-0.0417 1.7917,-0.0833 2.5,-0.125 0.2083,0.125 0.3125,0.3958 0.3125,0.8125 0,0.625 -0.125,0.9375 -0.375,0.9375 -0.5417,0 -1.3125,0.125 -2.3125,0.375 -1,0.25 -1.6667,0.4792 -2,0.6875 -0.0417,0.0417 -0.3333,0.5208 -0.875,1.4375 -0.5417,0.875 -1.3333,2.0833 -2.375,3.625 -1.0417,1.5417 -2.125,2.9583 -3.25,4.25 0.9583,1 1.625,1.6875 2,2.0625 0.375,0.375 0.875,0.8542 1.5,1.4375 0.625,0.5417 1.125,0.9167 1.5,1.125 0.375,0.1667 0.75,0.25 1.125,0.25 0.5833,0 1.2083,-0.3542 1.875,-1.0625 0.7083,-0.7083 1.1667,-1.3125 1.375,-1.8125 0.3333,0 0.6458,0.125 0.9375,0.375 0.3333,0.25 0.5,0.5 0.5,0.75 -0.1667,0.3333 -0.3542,0.6667 -0.5625,1 -0.2083,0.3333 -0.5833,0.8125 -1.125,1.4375 -0.5,0.625 -1.2083,1.1458 -2.125,1.5625 -0.875,0.375 -1.875,0.5625 -3,0.5625 -1.0833,0 -2.2292,-0.375 -3.4375,-1.125 -1.2083,-0.75 -2.125,-1.5 -2.75,-2.25 l -1,-1.125 c -3.5833,3.125 -7.375,4.6875 -11.375,4.6875 -3.7083,0 -6.66667,-0.8958 -8.875,-2.6875 -2.16667,-1.7917 -3.25,-4.25 -3.25,-7.375 0,-2.7083 0.91667,-4.9583 2.75,-6.75 C 6.95833,24.5417 9.5,22.7917 12.75,21.125 11.9583,19.7917 11.3542,18.7292 10.9375,17.9375 10.5625,17.1042 10.1667,16 9.75,14.625 9.33333,13.25 9.125,11.8958 9.125,10.5625 9.125,8.1875 10,6.16667 11.75,4.5 13.5,2.83333 15.6875,2 18.3125,2 Z" />
    <path
       style="fill:url(#paint2_linear)"
       inkscape:connector-curvature="0"
       id="path14"
       fill="url(#paint2_linear)"
       d="m 24.4375,37.0625 c -1.2083,-1.2083 -2.6667,-2.9583 -4.375,-5.25 -1.7083,-2.2917 -3.1042,-4.2708 -4.1875,-5.9375 l -1.6875,-2.5 c -1.5,1.0417 -2.6042,1.8542 -3.3125,2.4375 -0.7083,0.5417 -1.41667,1.3958 -2.125,2.5625 -0.66667,1.1667 -1,2.4583 -1,3.875 0,2.75 0.85417,4.8125 2.5625,6.1875 1.7083,1.375 3.8125,2.0625 6.3125,2.0625 1.2917,0 2.6667,-0.3125 4.125,-0.9375 1.5,-0.625 2.7292,-1.4583 3.6875,-2.5 z M 18.625,4.25 c -1.375,0 -2.5417,0.45833 -3.5,1.375 -0.9583,0.875 -1.4375,2.02083 -1.4375,3.4375 0,2.6667 1.0833,5.9583 3.25,9.875 2.1667,-1.25 3.7292,-2.5 4.6875,-3.75 1,-1.2917 1.5,-3.0625 1.5,-5.3125 0,-1.5 -0.4167,-2.8125 -1.25,-3.9375 C 21.0417,4.8125 19.9583,4.25 18.625,4.25 Z M 18.3125,2 c 2.7917,0 5,0.625 6.625,1.875 1.625,1.20833 2.4375,2.91667 2.4375,5.125 0,2.5417 -0.8125,4.7083 -2.4375,6.5 -1.625,1.7917 -3.9167,3.6042 -6.875,5.4375 2.4167,4.0833 5.5,8.2292 9.25,12.4375 1.0417,-1.5833 1.8958,-3.1042 2.5625,-4.5625 0.6667,-1.4583 1,-2.375 1,-2.75 0,-0.375 -0.2083,-0.625 -0.625,-0.75 -0.375,-0.1667 -0.8125,-0.25 -1.3125,-0.25 -0.5,-0.0417 -0.7917,-0.0833 -0.875,-0.125 -0.0833,-0.1667 -0.125,-0.4167 -0.125,-0.75 0,-0.3333 0.0625,-0.5625 0.1875,-0.6875 h 4.9375 c 0.625,0 1.2708,-0.0208 1.9375,-0.0625 0.7083,-0.0417 1.5208,-0.0833 2.4375,-0.125 0.9583,-0.0417 1.7917,-0.0833 2.5,-0.125 0.2083,0.125 0.3125,0.3958 0.3125,0.8125 0,0.625 -0.125,0.9375 -0.375,0.9375 -0.5417,0 -1.3125,0.125 -2.3125,0.375 -1,0.25 -1.6667,0.4792 -2,0.6875 -0.0417,0.0417 -0.3333,0.5208 -0.875,1.4375 -0.5417,0.875 -1.3333,2.0833 -2.375,3.625 -1.0417,1.5417 -2.125,2.9583 -3.25,4.25 0.9583,1 1.625,1.6875 2,2.0625 0.375,0.375 0.875,0.8542 1.5,1.4375 0.625,0.5417 1.125,0.9167 1.5,1.125 0.375,0.1667 0.75,0.25 1.125,0.25 0.5833,0 1.2083,-0.3542 1.875,-1.0625 0.7083,-0.7083 1.1667,-1.3125 1.375,-1.8125 0.3333,0 0.6458,0.125 0.9375,0.375 0.3333,0.25 0.5,0.5 0.5,0.75 -0.1667,0.3333 -0.3542,0.6667 -0.5625,1 -0.2083,0.3333 -0.5833,0.8125 -1.125,1.4375 -0.5,0.625 -1.2083,1.1458 -2.125,1.5625 -0.875,0.375 -1.875,0.5625 -3,0.5625 -1.0833,0 -2.2292,-0.375 -3.4375,-1.125 -1.2083,-0.75 -2.125,-1.5 -2.75,-2.25 l -1,-1.125 c -3.5833,3.125 -7.375,4.6875 -11.375,4.6875 -3.7083,0 -6.66667,-0.8958 -8.875,-2.6875 -2.16667,-1.7917 -3.25,-4.25 -3.25,-7.375 0,-2.7083 0.91667,-4.9583 2.75,-6.75 C 6.95833,24.5417 9.5,22.7917 12.75,21.125 11.9583,19.7917 11.3542,18.7292 10.9375,17.9375 10.5625,17.1042 10.1667,16 9.75,14.625 9.33333,13.25 9.125,11.8958 9.125,10.5625 9.125,8.1875 10,6.16667 11.75,4.5 13.5,2.83333 15.6875,2 18.3125,2 Z" />
    <path
       style="fill:url(#paint3_linear)"
       inkscape:connector-curvature="0"
       id="path16"
       fill="url(#paint3_linear)"
       d="m 24.4375,37.0625 c -1.2083,-1.2083 -2.6667,-2.9583 -4.375,-5.25 -1.7083,-2.2917 -3.1042,-4.2708 -4.1875,-5.9375 l -1.6875,-2.5 c -1.5,1.0417 -2.6042,1.8542 -3.3125,2.4375 -0.7083,0.5417 -1.41667,1.3958 -2.125,2.5625 -0.66667,1.1667 -1,2.4583 -1,3.875 0,2.75 0.85417,4.8125 2.5625,6.1875 1.7083,1.375 3.8125,2.0625 6.3125,2.0625 1.2917,0 2.6667,-0.3125 4.125,-0.9375 1.5,-0.625 2.7292,-1.4583 3.6875,-2.5 z M 18.625,4.25 c -1.375,0 -2.5417,0.45833 -3.5,1.375 -0.9583,0.875 -1.4375,2.02083 -1.4375,3.4375 0,2.6667 1.0833,5.9583 3.25,9.875 2.1667,-1.25 3.7292,-2.5 4.6875,-3.75 1,-1.2917 1.5,-3.0625 1.5,-5.3125 0,-1.5 -0.4167,-2.8125 -1.25,-3.9375 C 21.0417,4.8125 19.9583,4.25 18.625,4.25 Z M 18.3125,2 c 2.7917,0 5,0.625 6.625,1.875 1.625,1.20833 2.4375,2.91667 2.4375,5.125 0,2.5417 -0.8125,4.7083 -2.4375,6.5 -1.625,1.7917 -3.9167,3.6042 -6.875,5.4375 2.4167,4.0833 5.5,8.2292 9.25,12.4375 1.0417,-1.5833 1.8958,-3.1042 2.5625,-4.5625 0.6667,-1.4583 1,-2.375 1,-2.75 0,-0.375 -0.2083,-0.625 -0.625,-0.75 -0.375,-0.1667 -0.8125,-0.25 -1.3125,-0.25 -0.5,-0.0417 -0.7917,-0.0833 -0.875,-0.125 -0.0833,-0.1667 -0.125,-0.4167 -0.125,-0.75 0,-0.3333 0.0625,-0.5625 0.1875,-0.6875 h 4.9375 c 0.625,0 1.2708,-0.0208 1.9375,-0.0625 0.7083,-0.0417 1.5208,-0.0833 2.4375,-0.125 0.9583,-0.0417 1.7917,-0.0833 2.5,-0.125 0.2083,0.125 0.3125,0.3958 0.3125,0.8125 0,0.625 -0.125,0.9375 -0.375,0.9375 -0.5417,0 -1.3125,0.125 -2.3125,0.375 -1,0.25 -1.6667,0.4792 -2,0.6875 -0.0417,0.0417 -0.3333,0.5208 -0.875,1.4375 -0.5417,0.875 -1.3333,2.0833 -2.375,3.625 -1.0417,1.5417 -2.125,2.9583 -3.25,4.25 0.9583,1 1.625,1.6875 2,2.0625 0.375,0.375 0.875,0.8542 1.5,1.4375 0.625,0.5417 1.125,0.9167 1.5,1.125 0.375,0.1667 0.75,0.25 1.125,0.25 0.5833,0 1.2083,-0.3542 1.875,-1.0625 0.7083,-0.7083 1.1667,-1.3125 1.375,-1.8125 0.3333,0 0.6458,0.125 0.9375,0.375 0.3333,0.25 0.5,0.5 0.5,0.75 -0.1667,0.3333 -0.3542,0.6667 -0.5625,1 -0.2083,0.3333 -0.5833,0.8125 -1.125,1.4375 -0.5,0.625 -1.2083,1.1458 -2.125,1.5625 -0.875,0.375 -1.875,0.5625 -3,0.5625 -1.0833,0 -2.2292,-0.375 -3.4375,-1.125 -1.2083,-0.75 -2.125,-1.5 -2.75,-2.25 l -1,-1.125 c -3.5833,3.125 -7.375,4.6875 -11.375,4.6875 -3.7083,0 -6.66667,-0.8958 -8.875,-2.6875 -2.16667,-1.7917 -3.25,-4.25 -3.25,-7.375 0,-2.7083 0.91667,-4.9583 2.75,-6.75 C 6.95833,24.5417 9.5,22.7917 12.75,21.125 11.9583,19.7917 11.3542,18.7292 10.9375,17.9375 10.5625,17.1042 10.1667,16 9.75,14.625 9.33333,13.25 9.125,11.8958 9.125,10.5625 9.125,8.1875 10,6.16667 11.75,4.5 13.5,2.83333 15.6875,2 18.3125,2 Z" />
  </g>
  <defs
     id="defs55">
    <filter
       color-interpolation-filters="sRGB"
       filterUnits="userSpaceOnUse"
       height="49.1875"
       width="45.875"
       y="0"
       x="0.375"
       id="filter0_d">
      <feFlood
         id="feFlood20"
         result="BackgroundImageFix"
         flood-opacity="0" />
      <feColorMatrix
         id="feColorMatrix22"
         values="0 0 0 0 0 0 0 0 0 0 0 0 0 0 0 0 0 0 127 0"
         type="matrix"
         in="SourceAlpha" />
      <feOffset
         id="feOffset24"
         dy="2"
         dx="2" />
      <feGaussianBlur
         id="feGaussianBlur26"
         stdDeviation="2" />
      <feColorMatrix
         id="feColorMatrix28"
         values="0 0 0 0 0.321666 0 0 0 0 0.0833333 0 0 0 0 1 0 0 0 0.25 0"
         type="matrix" />
      <feBlend
         id="feBlend30"
         result="effect1_dropShadow"
         in2="BackgroundImageFix"
         mode="normal" />
      <feBlend
         id="feBlend32"
         result="shape"
         in2="effect1_dropShadow"
         in="SourceGraphic"
         mode="normal" />
    </filter>
    <radialGradient
       gradientTransform="matrix(-11.499758,30.800099,-22.302574,-8.3270573,29.1875,23.52)"
       gradientUnits="userSpaceOnUse"
       r="1"
       cy="0"
       cx="0"
       id="paint0_radial">
      <stop
         id="stop35"
         stop-color="#C1629B" />
      <stop
         id="stop37"
         stop-opacity="0"
         stop-color="white"
         offset="1" />
    </radialGradient>
    <linearGradient
       gradientUnits="userSpaceOnUse"
       y2="48.248299"
       x2="21.818501"
       y1="-1.12"
       x1="23.4375"
       id="paint1_linear">
      <stop
         id="stop40"
         stop-color="#DAC50E" />
      <stop
         id="stop42"
         stop-opacity="0"
         stop-color="white"
         offset="1" />
    </linearGradient>
    <linearGradient
       gradientUnits="userSpaceOnUse"
       y2="-11.8196"
       x2="55.946499"
       y1="50.799999"
       x1="-9.625"
       id="paint2_linear">
      <stop
         id="stop45"
         stop-color="#F53457" />
      <stop
         id="stop47"
         stop-opacity="0"
         stop-color="white"
         offset="1" />
    </linearGradient>
    <linearGradient
       gradientUnits="userSpaceOnUse"
       y2="14.4392"
       x2="8.37572"
       y1="36"
       x1="56"
       id="paint3_linear">
      <stop
         id="stop50"
         stop-color="#2E29FF" />
      <stop
         id="stop52"
         stop-opacity="0"
         stop-color="white"
         offset="1" />
    </linearGradient>
  </defs>
</svg>
